<?xml version="1.0" encoding="iso-8859-1"?>
<!-- Generator: Adobe Illustrator 19.0.0, SVG Export Plug-In . SVG Version: 6.00 Build 0)  -->
<svg version="1.1" id="Capa_1" xmlns="http://www.w3.org/2000/svg" xmlns:xlink="http://www.w3.org/1999/xlink" x="0px" y="0px"
	 viewBox="0 0 512 512" style="enable-background:new 0 0 512 512;" xml:space="preserve">
<path style="fill:#FFCB5A;" d="M512,220.69v70.621l-61.793,8.828l-26.483,61.175l35.31,53.583l-44.138,44.138l-52.966-34.692
	l-61.793,25.865L291.31,512H220.69l-8.828-61.793l-61.793-25.865l-52.966,34.692l-44.138-44.138l35.31-53.583l-26.483-61.175
	L0,291.31V220.69l61.793-8.828l26.483-61.175l-35.31-53.583l44.138-44.138l52.966,34.692l61.793-25.865L220.69,0h70.621
	l8.828,61.793l61.793,25.865l52.966-34.692l44.138,44.138l-26.483,44.756l26.483,70.003L512,220.69z M388.414,256
	c0-73.128-59.286-132.414-132.414-132.414S123.586,182.872,123.586,256S182.872,388.414,256,388.414
	C329.119,388.387,388.387,329.119,388.414,256z"/>
<polygon style="fill:#6F6F6F;" points="300.138,194.207 300.138,220.69 273.655,247.172 273.655,353.103 256,353.103 
	238.345,353.103 238.345,247.172 211.862,220.69 211.862,185.379 238.345,158.897 238.345,203.034 256,211.862 273.655,203.034 
	273.655,158.897 "/>
<g>
	<path style="fill:#F5B05C;" d="M147.297,140.262L135.186,127.4C167.848,96.556,211.076,79.395,256,79.448v17.655
		C215.578,97.059,176.675,112.499,147.297,140.262z"/>
	<path style="fill:#F5B05C;" d="M256,432.552c-18.953,0.026-37.791-3.019-55.773-9.013
		c-52.718-17.673-94.102-59.057-111.757-111.784l16.772-5.579c15.898,47.475,53.16,84.736,100.634,100.634
		c16.163,5.385,33.086,8.113,50.123,8.086V432.552z"/>
	<path style="fill:#F5B05C;" d="M432.552,256h-17.655c0.035-40.404-15.369-79.298-43.07-108.712l12.879-12.094
		C415.479,167.883,432.596,211.103,432.552,256z"/>
</g>
<g>
</g>
<g>
</g>
<g>
</g>
<g>
</g>
<g>
</g>
<g>
</g>
<g>
</g>
<g>
</g>
<g>
</g>
<g>
</g>
<g>
</g>
<g>
</g>
<g>
</g>
<g>
</g>
<g>
</g>
</svg>
